<?xml version="1.0" standalone="no"?>
<!DOCTYPE svg PUBLIC "-//W3C//DTD SVG 20010904//EN"
 "http://www.w3.org/TR/2001/REC-SVG-20010904/DTD/svg10.dtd">
<svg version="1.0" xmlns="http://www.w3.org/2000/svg"
 width="2049.000000pt" height="2049.000000pt" viewBox="0 0 2049.000000 2049.000000"
 preserveAspectRatio="xMidYMid meet">
<metadata>
Created by potrace 1.11, written by Peter Selinger 2001-2013
</metadata>
<g transform="translate(0.000000,2049.000000) scale(0.100000,-0.100000)"
fill="#000000" stroke="none">
<path d="M10024 20456 c-119 -28 -202 -65 -374 -166 -69 -40 -143 -83 -165
-95 -22 -13 -182 -105 -355 -205 -173 -101 -335 -194 -360 -208 -25 -14 -124
-71 -220 -127 -173 -100 -612 -354 -680 -392 -19 -11 -60 -35 -90 -53 -30 -18
-71 -42 -90 -53 -114 -64 -441 -254 -472 -274 -21 -12 -40 -23 -42 -23 -3 0
-46 -25 -96 -55 -50 -30 -92 -55 -95 -55 -2 0 -49 -27 -105 -60 -56 -33 -106
-60 -111 -60 -5 0 -9 -4 -9 -10 0 -5 -5 -10 -10 -10 -6 0 -108 -57 -228 -126
-119 -69 -264 -153 -322 -187 -58 -33 -136 -79 -175 -102 -38 -23 -77 -44 -85
-48 -8 -4 -31 -17 -50 -28 -41 -25 -1013 -586 -1050 -606 -14 -8 -45 -26 -70
-41 -25 -15 -95 -55 -155 -90 -61 -35 -117 -67 -125 -72 -28 -17 -452 -263
-540 -312 -48 -28 -479 -276 -645 -373 -55 -32 -120 -69 -145 -83 -25 -14 -62
-36 -82 -49 -21 -12 -39 -23 -42 -23 -2 0 -35 -19 -72 -41 -38 -23 -87 -52
-109 -64 -22 -12 -152 -87 -290 -166 -137 -80 -343 -199 -457 -265 -134 -77
-212 -128 -222 -146 -27 -45 -18 -117 18 -153 6 -6 142 -87 301 -179 160 -92
297 -172 305 -176 21 -12 197 -113 240 -138 19 -11 107 -62 195 -113 88 -51
177 -102 197 -113 20 -12 90 -52 155 -90 65 -37 143 -82 173 -99 30 -16 60
-33 65 -37 6 -4 26 -17 45 -28 19 -10 86 -49 148 -85 63 -37 128 -69 146 -73
39 -7 57 1 243 109 72 42 147 85 165 95 18 11 57 33 86 51 29 17 55 31 58 31
3 0 30 16 60 35 30 19 57 35 60 35 3 0 28 15 57 33 29 18 63 38 77 45 14 7 41
22 60 33 381 228 804 448 1195 621 50 22 108 48 130 58 22 9 110 45 195 79 85
34 164 66 175 71 95 41 575 204 795 268 313 93 718 192 970 238 14 2 59 11
100 19 108 21 279 49 360 60 25 3 56 8 70 10 14 3 45 7 69 10 23 3 55 7 70 9
14 3 51 8 81 11 30 4 71 8 90 11 33 4 87 9 185 19 22 2 76 7 120 10 44 4 96 8
115 10 19 2 98 7 175 11 77 3 165 8 195 10 68 4 766 3 835 -1 28 -1 111 -6
185 -10 74 -3 147 -8 162 -10 15 -2 76 -6 135 -10 59 -4 110 -9 113 -10 3 -2
41 -6 85 -10 44 -4 87 -9 95 -10 8 -2 44 -6 80 -10 36 -3 76 -8 90 -10 14 -2
45 -6 70 -10 25 -3 56 -8 70 -10 14 -2 45 -7 70 -10 25 -3 68 -10 95 -15 28
-5 70 -12 95 -15 25 -3 53 -8 63 -11 10 -3 30 -7 45 -9 84 -12 374 -71 537
-110 39 -9 77 -18 85 -20 28 -6 335 -86 365 -96 17 -5 93 -27 170 -50 430
-125 996 -338 1374 -515 51 -24 95 -44 98 -44 12 0 489 -244 613 -313 25 -14
57 -32 72 -40 14 -8 162 -93 328 -188 165 -96 318 -183 338 -195 20 -11 53
-30 72 -41 78 -45 298 -172 341 -195 73 -41 92 -35 320 97 112 64 224 129 249
143 25 13 57 33 72 43 14 11 28 19 31 19 3 0 45 23 94 51 48 28 160 93 248
144 546 316 675 390 715 413 25 13 50 28 55 32 6 5 33 21 61 37 193 107 224
129 240 162 19 40 14 104 -12 132 -14 16 -109 75 -199 124 -11 6 -137 79 -280
162 -143 83 -277 160 -297 172 -64 36 -96 54 -323 186 -121 70 -240 139 -265
153 -25 14 -108 62 -185 107 -77 45 -160 93 -185 107 -25 14 -117 67 -205 118
-88 51 -173 101 -190 110 -42 24 -440 254 -675 390 -107 62 -211 122 -230 133
-19 10 -177 101 -350 202 -352 204 -677 391 -820 473 -52 29 -99 57 -105 61
-5 5 -35 22 -65 38 -30 17 -226 129 -435 250 -560 324 -1159 670 -1197 691
-18 11 -130 75 -248 144 -475 275 -737 427 -785 453 -27 16 -94 55 -148 87
-55 32 -101 58 -103 58 -2 0 -21 11 -42 23 -35 23 -468 273 -558 323 -190 106
-452 141 -670 90z"/>
<path d="M10068 15045 c-2 -1 -64 -5 -138 -9 -74 -3 -146 -8 -160 -10 -14 -3
-54 -7 -90 -11 -36 -3 -81 -8 -100 -11 -31 -4 -49 -7 -125 -19 -11 -2 -36 -6
-55 -9 -19 -3 -46 -8 -60 -11 -14 -3 -41 -8 -60 -11 -58 -9 -315 -72 -408 -99
-48 -15 -94 -28 -102 -30 -26 -6 -242 -82 -312 -109 -345 -132 -741 -342
-1026 -544 -52 -37 -104 -74 -115 -82 -47 -31 -262 -205 -340 -273 -84 -73
-314 -300 -401 -395 -334 -366 -657 -862 -850 -1307 -26 -60 -56 -129 -67
-152 -10 -24 -19 -49 -19 -56 0 -7 -4 -17 -9 -23 -8 -9 -89 -241 -130 -374
-21 -70 -86 -326 -95 -375 -17 -97 -37 -202 -41 -215 -2 -8 -7 -42 -10 -75 -4
-33 -8 -67 -10 -75 -2 -8 -7 -42 -11 -75 -3 -33 -8 -73 -10 -90 -26 -197 -26
-777 0 -995 3 -19 7 -59 10 -89 6 -53 20 -152 32 -226 5 -35 59 -305 69 -345
4 -19 42 -158 60 -225 48 -171 137 -419 210 -580 12 -27 35 -79 51 -115 172
-391 487 -868 803 -1220 367 -408 789 -746 1271 -1019 144 -82 450 -225 645
-301 78 -31 252 -91 305 -106 8 -2 70 -19 137 -38 107 -30 286 -73 378 -91 88
-16 196 -34 244 -40 30 -4 61 -8 70 -10 9 -1 48 -6 88 -10 40 -4 85 -8 100
-10 74 -9 294 -18 438 -18 233 0 382 9 590 34 139 17 158 20 250 36 50 8 97
17 105 18 182 27 617 152 855 247 209 83 536 239 655 313 19 12 42 25 50 28 8
4 53 32 100 62 47 30 98 63 114 73 84 51 398 285 452 337 6 5 31 26 55 46 133
111 379 357 514 514 37 44 80 94 94 110 77 89 262 348 365 513 139 223 292
522 380 747 26 66 52 129 56 140 85 193 227 750 255 1001 4 32 9 68 11 79 2
11 7 47 10 80 3 33 8 71 10 85 17 104 24 631 10 820 -8 116 -33 345 -46 420
-16 93 -25 144 -35 200 -44 226 -177 685 -240 825 -7 16 -37 86 -65 155 -58
138 -162 349 -253 510 -51 89 -204 332 -230 365 -4 6 -44 60 -89 120 -143 194
-293 369 -468 544 -108 108 -154 153 -275 259 -366 325 -885 642 -1380 842
-236 95 -647 221 -804 246 -20 3 -38 7 -41 9 -3 2 -26 6 -50 10 -25 3 -61 10
-80 15 -19 5 -55 11 -80 14 -25 3 -54 8 -65 10 -39 7 -111 16 -170 21 -33 3
-76 7 -95 10 -106 14 -620 30 -632 20z"/>
<path d="M1222 14679 c-39 -8 -66 -31 -81 -67 -8 -20 -11 -1309 -9 -4702 l3
-4675 23 -80 c58 -202 188 -399 337 -510 22 -16 42 -33 45 -36 5 -5 226 -135
320 -187 25 -14 74 -42 109 -64 34 -21 64 -38 66 -38 3 0 142 -79 175 -100 8
-5 62 -37 120 -70 58 -33 112 -65 120 -70 33 -20 518 -299 565 -325 28 -15 55
-31 60 -35 6 -4 30 -19 55 -32 25 -14 132 -76 238 -137 106 -61 207 -120 225
-130 17 -10 83 -48 146 -85 62 -36 115 -66 118 -66 2 0 16 -8 31 -19 15 -10
151 -90 302 -177 239 -137 593 -340 685 -394 17 -10 174 -101 350 -202 176
-102 394 -228 485 -280 91 -53 182 -105 203 -117 66 -37 100 -57 215 -125 62
-36 132 -77 155 -90 23 -13 83 -47 132 -76 50 -29 110 -64 135 -78 25 -14 144
-82 265 -152 121 -70 238 -138 260 -151 22 -12 63 -35 90 -51 28 -16 57 -33
65 -38 14 -9 381 -221 475 -275 22 -12 128 -73 235 -135 107 -62 210 -121 228
-131 55 -32 92 -54 245 -143 82 -47 167 -97 190 -110 40 -22 330 -190 647
-373 80 -46 152 -88 160 -93 76 -47 116 -62 152 -57 49 7 86 31 99 65 14 36
15 2266 1 2302 -13 34 -14 35 -187 134 -82 47 -157 90 -165 95 -24 15 -418
243 -474 274 -50 28 -204 118 -376 220 -144 85 -546 342 -560 357 -3 3 -66 48
-140 100 -74 52 -139 98 -145 102 -5 5 -53 40 -105 80 -93 70 -270 208 -280
218 -3 3 -41 34 -85 70 -359 290 -869 783 -1206 1165 -24 28 -46 52 -49 55 -3
3 -30 34 -60 70 -30 36 -57 67 -60 70 -3 3 -24 28 -45 55 -22 28 -42 52 -45
55 -27 24 -270 341 -400 520 -228 314 -520 778 -693 1100 -22 41 -43 80 -48
85 -20 27 -267 533 -342 701 -89 200 -244 584 -297 739 -17 50 -35 99 -40 110
-19 44 -153 472 -186 595 -2 8 -19 74 -39 145 -19 72 -37 139 -39 150 -2 11
-14 58 -26 105 -12 47 -24 96 -26 110 -3 14 -11 51 -19 83 -8 32 -17 71 -20
86 -3 15 -18 99 -35 186 -47 244 -46 238 -74 430 -9 61 -18 121 -21 135 -2 14
-7 50 -10 80 -3 30 -8 62 -10 70 -2 8 -7 49 -10 90 -4 41 -9 82 -10 91 -2 9
-6 54 -9 101 -4 47 -8 94 -10 105 -3 11 -7 69 -11 129 -4 60 -8 125 -10 144
-12 126 -18 494 -19 1160 -2 649 -4 769 -16 788 -15 24 -67 56 -353 221 -92
53 -182 105 -200 115 -18 10 -50 29 -72 41 -22 13 -224 130 -450 260 -225 131
-430 249 -455 263 -25 14 -130 74 -233 134 -103 60 -200 113 -215 117 -15 4
-42 4 -60 0z"/>
<path d="M19174 14670 c-21 -9 -64 -32 -94 -50 -30 -18 -73 -43 -95 -55 -22
-13 -166 -96 -320 -185 -154 -89 -300 -174 -325 -188 -25 -14 -76 -44 -115
-67 -38 -22 -77 -44 -85 -48 -8 -4 -29 -15 -45 -26 -24 -14 -384 -223 -520
-301 -16 -9 -72 -41 -123 -71 -50 -30 -104 -61 -120 -69 -66 -37 -103 -63
-115 -83 -9 -17 -12 -191 -13 -747 -1 -803 -11 -1164 -39 -1450 -2 -19 -7 -69
-10 -110 -4 -41 -8 -86 -10 -100 -2 -14 -7 -56 -11 -95 -3 -38 -8 -78 -10 -89
-2 -10 -6 -44 -9 -75 -4 -31 -8 -63 -10 -71 -2 -8 -7 -40 -10 -70 -5 -47 -25
-174 -40 -260 -3 -14 -10 -54 -16 -90 -40 -251 -127 -630 -234 -1025 -181
-670 -546 -1571 -881 -2175 -20 -36 -54 -99 -77 -140 -22 -41 -58 -103 -79
-138 -21 -34 -38 -64 -38 -66 0 -8 -186 -306 -275 -441 -148 -225 -472 -677
-504 -705 -4 -3 -51 -61 -105 -130 -83 -104 -196 -240 -216 -260 -3 -3 -30
-34 -60 -70 -30 -35 -62 -72 -70 -80 -8 -9 -60 -66 -115 -126 -97 -106 -436
-447 -566 -570 -88 -83 -374 -333 -485 -424 -131 -108 -143 -117 -204 -163
-30 -23 -57 -44 -60 -48 -36 -41 -717 -519 -739 -519 -5 0 -16 -9 -26 -20 -10
-11 -22 -20 -27 -20 -5 0 -28 -13 -51 -29 -23 -15 -105 -65 -182 -111 -77 -46
-157 -93 -177 -106 -21 -13 -39 -24 -41 -24 -3 0 -56 -30 -118 -67 -147 -85
-297 -172 -329 -189 -191 -105 -537 -315 -554 -337 l-21 -28 -1 -1127 c0 -654
4 -1139 9 -1155 13 -39 66 -77 108 -77 19 0 50 8 69 18 39 21 37 19 315 180
110 63 225 130 255 147 30 18 114 66 185 107 206 119 440 254 710 410 138 79
311 180 385 223 74 43 151 87 170 98 45 25 275 159 320 186 19 11 42 24 50 28
8 4 51 28 95 54 44 26 96 56 115 67 19 10 76 43 125 72 50 29 108 62 130 75
22 12 123 71 225 130 102 59 205 119 230 133 25 13 83 47 130 75 47 27 101 59
120 70 59 33 551 317 620 357 198 116 483 280 487 280 3 0 17 8 31 19 15 10
50 31 77 46 59 33 156 88 205 117 273 159 412 238 420 238 5 0 10 5 10 10 0 6
4 10 8 10 5 0 119 64 253 141 473 274 638 369 686 395 26 15 64 37 83 49 19
12 55 33 80 47 68 38 951 549 985 569 17 11 37 22 45 26 13 6 191 109 230 133
8 5 33 19 55 31 86 46 180 116 241 179 136 140 202 255 257 450 l22 75 2 4672
c3 4515 3 4673 -15 4705 -31 56 -96 76 -158 48z"/>
</g>
</svg>
